<svg width="54" height="48" viewBox="0 0 54 48" fill="none" xmlns="http://www.w3.org/2000/svg">
<path d="M13.6673 29.3333C14.4229 29.3333 15.0562 29.0778 15.5673 28.5667C16.0784 28.0556 16.334 27.4222 16.334 26.6667C16.334 25.9111 16.0784 25.2778 15.5673 24.7667C15.0562 24.2556 14.4229 24 13.6673 24C12.9118 24 12.2784 24.2556 11.7673 24.7667C11.2562 25.2778 11.0007 25.9111 11.0007 26.6667C11.0007 27.4222 11.2562 28.0556 11.7673 28.5667C12.2784 29.0778 12.9118 29.3333 13.6673 29.3333ZM13.6673 18.6667C14.4229 18.6667 15.0562 18.4111 15.5673 17.9C16.0784 17.3889 16.334 16.7556 16.334 16C16.334 15.2444 16.0784 14.6111 15.5673 14.1C15.0562 13.5889 14.4229 13.3333 13.6673 13.3333C12.9118 13.3333 12.2784 13.5889 11.7673 14.1C11.2562 14.6111 11.0007 15.2444 11.0007 16C11.0007 16.7556 11.2562 17.3889 11.7673 17.9C12.2784 18.4111 12.9118 18.6667 13.6673 18.6667ZM19.0007 29.3333H43.0006V24H19.0007V29.3333ZM19.0007 18.6667H43.0006V13.3333H19.0007V18.6667ZM16.334 48V42.6667H5.66732C4.20065 42.6667 2.9451 42.1444 1.90065 41.1C0.856207 40.0556 0.333984 38.8 0.333984 37.3333V5.33333C0.333984 3.86667 0.856207 2.61111 1.90065 1.56667C2.9451 0.522222 4.20065 0 5.66732 0H48.334C49.8006 0 51.0562 0.522222 52.1007 1.56667C53.1451 2.61111 53.6673 3.86667 53.6673 5.33333V37.3333C53.6673 38.8 53.1451 40.0556 52.1007 41.1C51.0562 42.1444 49.8006 42.6667 48.334 42.6667H37.6673V48H16.334ZM5.66732 37.3333H48.334V5.33333H5.66732V37.3333Z" fill="#1C1B1F"/>
</svg>
