<svg width="64" height="64" viewBox="0 0 64 64" fill="none" xmlns="http://www.w3.org/2000/svg">
<mask id="mask0_329_7305" style="mask-type:alpha" maskUnits="userSpaceOnUse" x="0" y="0" width="64" height="64">
<rect width="64" height="64" fill="#D9D9D9"/>
</mask>
<g mask="url(#mask0_329_7305)">
<path d="M29.3346 42.6667V26.6667H21.3346V21.3334H42.668V26.6667H34.668V42.6667H29.3346ZM2.66797 61.3334V45.3334H8.0013V18.6667H2.66797V2.66675H18.668V8.00008H45.3346V2.66675H61.3346V18.6667H56.0013V45.3334H61.3346V61.3334H45.3346V56.0001H18.668V61.3334H2.66797ZM18.668 50.6667H45.3346V45.3334H50.668V18.6667H45.3346V13.3334H18.668V18.6667H13.3346V45.3334H18.668V50.6667ZM8.0013 13.3334H13.3346V8.00008H8.0013V13.3334ZM50.668 13.3334H56.0013V8.00008H50.668V13.3334ZM50.668 56.0001H56.0013V50.6667H50.668V56.0001ZM8.0013 56.0001H13.3346V50.6667H8.0013V56.0001Z" fill="#1C1B1F"/>
</g>
</svg>
