<svg width="21" height="20" viewBox="0 0 21 20" fill="none" xmlns="http://www.w3.org/2000/svg">
<mask id="mask0_329_6869" style="mask-type:alpha" maskUnits="userSpaceOnUse" x="0" y="0" width="21" height="24">
<rect x="0.5" width="20" height="24" fill="#D9D9D9"/>
</mask>
<g mask="url(#mask0_329_6869)">
<path d="M2.16667 17.1667C1.70833 17.1667 1.31597 17.0035 0.989583 16.6771C0.663194 16.3507 0.5 15.9583 0.5 15.5H3.83333C3.375 15.5 2.98264 15.3368 2.65625 15.0104C2.32986 14.684 2.16667 14.2917 2.16667 13.8333V4.66667C2.16667 4.20833 2.32986 3.81597 2.65625 3.48958C2.98264 3.16319 3.375 3 3.83333 3H17.1667C17.625 3 18.0174 3.16319 18.3438 3.48958C18.6701 3.81597 18.8333 4.20833 18.8333 4.66667V13.8333C18.8333 14.2917 18.6701 14.684 18.3438 15.0104C18.0174 15.3368 17.625 15.5 17.1667 15.5H20.5C20.5 15.9583 20.3368 16.3507 20.0104 16.6771C19.684 17.0035 19.2917 17.1667 18.8333 17.1667H2.16667ZM10.5 16.3333C10.7361 16.3333 10.934 16.2535 11.0938 16.0938C11.2535 15.934 11.3333 15.7361 11.3333 15.5C11.3333 15.2639 11.2535 15.066 11.0938 14.9063C10.934 14.7465 10.7361 14.6667 10.5 14.6667C10.2639 14.6667 10.066 14.7465 9.90625 14.9063C9.74653 15.066 9.66667 15.2639 9.66667 15.5C9.66667 15.7361 9.74653 15.934 9.90625 16.0938C10.066 16.2535 10.2639 16.3333 10.5 16.3333ZM3.83333 13.8333H17.1667V4.66667H3.83333V13.8333Z" fill="white"/>
</g>
</svg>
