<svg width="64" height="64" viewBox="0 0 64 64" fill="none" xmlns="http://www.w3.org/2000/svg">
<mask id="mask0_329_7295" style="mask-type:alpha" maskUnits="userSpaceOnUse" x="0" y="0" width="64" height="64">
<rect width="64" height="64" fill="#D9D9D9"/>
</mask>
<g mask="url(#mask0_329_7295)">
<path d="M45.3326 58.6666C41.6437 58.6666 38.4992 57.3666 35.8992 54.7666C33.2992 52.1666 31.9992 49.0221 31.9992 45.3332C31.9992 41.6444 33.2992 38.4999 35.8992 35.8999C38.4992 33.2999 41.6437 31.9999 45.3326 31.9999C49.0214 31.9999 52.1659 33.2999 54.7659 35.8999C57.3659 38.4999 58.6659 41.6444 58.6659 45.3332C58.6659 49.0221 57.3659 52.1666 54.7659 54.7666C52.1659 57.3666 49.0214 58.6666 45.3326 58.6666ZM51.1992 51.0666C51.4214 50.8444 51.477 50.5777 51.3659 50.2666C51.2548 49.9555 51.0437 49.7777 50.7326 49.7332C49.577 49.511 48.4992 49.0777 47.4992 48.4333C46.4992 47.7888 45.6881 46.9333 45.0659 45.8666C44.4437 44.7999 44.0992 43.6666 44.0326 42.4666C43.9659 41.2666 44.1326 40.111 44.5326 38.9999C44.6214 38.6888 44.5659 38.411 44.3659 38.1666C44.1659 37.9221 43.9103 37.8444 43.5992 37.9333C40.6214 38.4666 38.5881 40.1555 37.4992 42.9999C36.4103 45.8444 36.8437 48.4888 38.7992 50.9333C40.3548 52.8888 42.3992 53.8888 44.9326 53.9333C47.4659 53.9777 49.5548 53.0221 51.1992 51.0666ZM24.6659 58.6666L23.5992 50.1333C23.0214 49.911 22.477 49.6444 21.9659 49.3332C21.4548 49.0221 20.9548 48.6888 20.4659 48.3332L12.5326 51.6666L5.19922 38.9999L12.0659 33.7999C12.0214 33.4888 11.9992 33.1888 11.9992 32.8999V31.0999C11.9992 30.811 12.0214 30.511 12.0659 30.1999L5.19922 24.9999L12.5326 12.3333L20.4659 15.6666C20.9548 15.311 21.4659 14.9777 21.9992 14.6666C22.5326 14.3555 23.0659 14.0888 23.5992 13.8666L24.6659 5.33325H39.3326L40.3992 13.8666C40.977 14.0888 41.5214 14.3555 42.0326 14.6666C42.5437 14.9777 43.0437 15.311 43.5326 15.6666L51.4659 12.3333L58.7992 24.9999L53.8659 28.7333C52.8881 28.2444 51.8881 27.8333 50.8659 27.4999C49.8437 27.1666 48.7548 26.9333 47.5992 26.7999L51.7992 23.5999L49.1992 19.0666L42.5992 21.8666C41.6214 20.8444 40.5437 19.9888 39.3659 19.2999C38.1881 18.611 36.9103 18.0888 35.5326 17.7333L34.6659 10.6666H29.3992L28.4659 17.7333C27.0881 18.0888 25.8103 18.611 24.6326 19.2999C23.4548 19.9888 22.377 20.8221 21.3992 21.7999L14.7992 19.0666L12.1992 23.5999L17.9326 27.8666C17.7103 28.5333 17.5548 29.1999 17.4659 29.8666C17.377 30.5333 17.3326 31.2444 17.3326 31.9999C17.3326 32.711 17.377 33.3999 17.4659 34.0666C17.5548 34.7333 17.7103 35.3999 17.9326 36.0666L12.1992 40.3999L14.7992 44.9333L21.3992 42.1333C22.1548 42.8888 22.9659 43.5666 23.8326 44.1666C24.6992 44.7666 25.6437 45.2666 26.6659 45.6666C26.7103 48.1999 27.2326 50.5777 28.2326 52.7999C29.2326 55.0221 30.577 56.9777 32.2659 58.6666H24.6659ZM27.3992 40.0666C27.6659 39.1777 27.9881 38.3221 28.3659 37.4999C28.7437 36.6777 29.177 35.8888 29.6659 35.1333C29.177 34.7777 28.7992 34.3221 28.5326 33.7666C28.2659 33.211 28.1326 32.6221 28.1326 31.9999C28.1326 30.8888 28.5214 29.9444 29.2992 29.1666C30.077 28.3888 31.0214 27.9999 32.1326 27.9999C32.7548 27.9999 33.3548 28.1444 33.9326 28.4333C34.5103 28.7221 34.977 29.111 35.3326 29.5999C36.0881 29.111 36.8659 28.6777 37.6659 28.2999C38.4659 27.9221 39.3103 27.6221 40.1992 27.3999C39.3992 25.9777 38.2881 24.8333 36.8659 23.9666C35.4437 23.0999 33.8659 22.6666 32.1326 22.6666C29.5103 22.6666 27.2992 23.5777 25.4992 25.3999C23.6992 27.2221 22.7992 29.4221 22.7992 31.9999C22.7992 33.6888 23.2103 35.2555 24.0326 36.6999C24.8548 38.1444 25.977 39.2666 27.3992 40.0666Z" fill="#1C1B1F"/>
</g>
</svg>
