<svg width="55" height="55" viewBox="0 0 55 55" fill="none" xmlns="http://www.w3.org/2000/svg">
<path d="M50.8673 54.6667L43.0007 46.8V52.7334H37.6673V37.6667H52.734V43H46.734L54.6007 50.8667L50.8673 54.6667ZM27.0007 53.6667C23.3118 53.6667 19.8451 52.9667 16.6007 51.5667C13.3562 50.1667 10.534 48.2667 8.13398 45.8667C5.73398 43.4667 3.83398 40.6445 2.43398 37.4C1.03398 34.1556 0.333984 30.6889 0.333984 27C0.333984 23.3112 1.03398 19.8445 2.43398 16.6C3.83398 13.3556 5.73398 10.5334 8.13398 8.13337C10.534 5.73337 13.3562 3.83337 16.6007 2.43337C19.8451 1.03337 23.3118 0.333374 27.0007 0.333374C30.6895 0.333374 34.1562 1.03337 37.4007 2.43337C40.6451 3.83337 43.4673 5.73337 45.8673 8.13337C48.2673 10.5334 50.1673 13.3556 51.5673 16.6C52.9673 19.8445 53.6673 23.3112 53.6673 27C53.6673 27.8889 53.6229 28.7778 53.534 29.6667C53.4451 30.5556 53.3118 31.4445 53.134 32.3334H47.6673C47.8895 31.4445 48.0562 30.5556 48.1673 29.6667C48.2784 28.7778 48.334 27.8889 48.334 27C48.334 26.1112 48.2784 25.2223 48.1673 24.3334C48.0562 23.4445 47.8895 22.5556 47.6673 21.6667H38.6007C38.734 22.5556 38.834 23.4445 38.9007 24.3334C38.9673 25.2223 39.0007 26.1112 39.0007 27C39.0007 27.8889 38.9673 28.7778 38.9007 29.6667C38.834 30.5556 38.734 31.4445 38.6007 32.3334H33.2673C33.4007 31.4445 33.5007 30.5556 33.5673 29.6667C33.634 28.7778 33.6673 27.8889 33.6673 27C33.6673 26.1112 33.634 25.2223 33.5673 24.3334C33.5007 23.4445 33.4007 22.5556 33.2673 21.6667H20.734C20.6007 22.5556 20.5007 23.4445 20.434 24.3334C20.3673 25.2223 20.334 26.1112 20.334 27C20.334 27.8889 20.3673 28.7778 20.434 29.6667C20.5007 30.5556 20.6007 31.4445 20.734 32.3334H29.6673V37.6667H21.934C22.4673 39.5778 23.1562 41.4112 24.0007 43.1667C24.8451 44.9223 25.8451 46.6 27.0007 48.2C27.8895 48.2 28.7784 48.1445 29.6673 48.0334C30.5562 47.9223 31.4451 47.8223 32.334 47.7334V53.2C31.4451 53.2889 30.5562 53.3889 29.6673 53.5C28.7784 53.6112 27.8895 53.6667 27.0007 53.6667ZM6.33398 32.3334H15.4007C15.2673 31.4445 15.1673 30.5556 15.1007 29.6667C15.034 28.7778 15.0007 27.8889 15.0007 27C15.0007 26.1112 15.034 25.2223 15.1007 24.3334C15.1673 23.4445 15.2673 22.5556 15.4007 21.6667H6.33398C6.11176 22.5556 5.9451 23.4445 5.83398 24.3334C5.72287 25.2223 5.66732 26.1112 5.66732 27C5.66732 27.8889 5.72287 28.7778 5.83398 29.6667C5.9451 30.5556 6.11176 31.4445 6.33398 32.3334ZM8.60065 16.3334H16.4673C16.8673 14.6889 17.3673 13.0778 17.9673 11.5C18.5673 9.92226 19.2673 8.37782 20.0673 6.86671C17.6229 7.66671 15.4229 8.87782 13.4673 10.5C11.5118 12.1223 9.88954 14.0667 8.60065 16.3334ZM20.0673 47.1334C19.2673 45.6223 18.5673 44.0778 17.9673 42.5C17.3673 40.9223 16.8673 39.3112 16.4673 37.6667H8.60065C9.88954 39.9334 11.5118 41.8778 13.4673 43.5C15.4229 45.1223 17.6229 46.3334 20.0673 47.1334ZM21.934 16.3334H32.0673C31.534 14.4223 30.8451 12.5889 30.0007 10.8334C29.1562 9.07782 28.1562 7.40004 27.0007 5.80004C25.8451 7.40004 24.8451 9.07782 24.0007 10.8334C23.1562 12.5889 22.4673 14.4223 21.934 16.3334ZM37.534 16.3334H45.4007C44.1118 14.0667 42.4895 12.1223 40.534 10.5C38.5784 8.87782 36.3784 7.66671 33.934 6.86671C34.734 8.37782 35.434 9.92226 36.034 11.5C36.634 13.0778 37.134 14.6889 37.534 16.3334Z" fill="#2B2E4A"/>
</svg>
