<svg width="48" height="54" viewBox="0 0 48 54" fill="none" xmlns="http://www.w3.org/2000/svg">
<path d="M8 53.6667C5.77778 53.6667 3.88889 52.8889 2.33333 51.3334C0.777778 49.7778 0 47.8889 0 45.6667V37.6667H8V0.333374H48V45.6667C48 47.8889 47.2222 49.7778 45.6667 51.3334C44.1111 52.8889 42.2222 53.6667 40 53.6667H8ZM40 48.3334C40.7556 48.3334 41.3889 48.0778 41.9 47.5667C42.4111 47.0556 42.6667 46.4223 42.6667 45.6667V5.66671H13.3333V37.6667H37.3333V45.6667C37.3333 46.4223 37.5889 47.0556 38.1 47.5667C38.6111 48.0778 39.2444 48.3334 40 48.3334ZM16 19V13.6667H40V19H16ZM16 27V21.6667H40V27H16ZM8 48.3334H32V43H5.33333V45.6667C5.33333 46.4223 5.58889 47.0556 6.1 47.5667C6.61111 48.0778 7.24444 48.3334 8 48.3334ZM8 48.3334H5.33333H32H8Z" fill="#2B2E4A"/>
</svg>
