<svg width="60" height="57" viewBox="0 0 60 57" fill="none" xmlns="http://www.w3.org/2000/svg">
<path d="M4.99935 43.4667L0.666016 40.3334L13.9993 19L21.9993 28.3334L32.666 11L39.9327 21.8667C38.9105 21.9112 37.9438 22.0334 37.0327 22.2334C36.1216 22.4334 35.2216 22.7112 34.3327 23.0667L32.866 20.8667L22.7327 37.3334L14.666 27.9334L4.99935 43.4667ZM55.5327 56.3334L47.1993 48C46.3105 48.6223 45.3216 49.0889 44.2327 49.4C43.1438 49.7112 42.0216 49.8667 40.866 49.8667C37.5327 49.8667 34.6993 48.7 32.366 46.3667C30.0327 44.0334 28.866 41.2 28.866 37.8667C28.866 34.5334 30.0327 31.7 32.366 29.3667C34.6993 27.0334 37.5327 25.8667 40.866 25.8667C44.1993 25.8667 47.0327 27.0334 49.366 29.3667C51.6993 31.7 52.866 34.5334 52.866 37.8667C52.866 39.0223 52.7105 40.1445 52.3993 41.2334C52.0882 42.3223 51.6216 43.3334 50.9993 44.2667L59.3327 52.5334L55.5327 56.3334ZM40.866 44.5334C42.7327 44.5334 44.3105 43.8889 45.5993 42.6C46.8882 41.3112 47.5327 39.7334 47.5327 37.8667C47.5327 36 46.8882 34.4223 45.5993 33.1334C44.3105 31.8445 42.7327 31.2 40.866 31.2C38.9993 31.2 37.4216 31.8445 36.1327 33.1334C34.8438 34.4223 34.1993 36 34.1993 37.8667C34.1993 39.7334 34.8438 41.3112 36.1327 42.6C37.4216 43.8889 38.9993 44.5334 40.866 44.5334ZM46.7994 23.2C45.9549 22.8445 45.0771 22.5556 44.166 22.3334C43.2549 22.1112 42.3105 21.9778 41.3327 21.9334L54.9993 0.333374L59.3327 3.46671L46.7994 23.2Z" fill="#2B2E4A"/>
</svg>
