<svg width="40" height="28" viewBox="0 0 40 28" fill="none" xmlns="http://www.w3.org/2000/svg">
<path d="M4.30016 0L9.66683 9.33333C7.10016 9.33333 4.90294 10.2472 3.07516 12.075C1.24739 13.9028 0.333496 16.1 0.333496 18.6667C0.333496 21.2333 1.24739 23.4306 3.07516 25.2583C4.90294 27.0861 7.10016 28 9.66683 28C12.2335 28 14.4307 27.0861 16.2585 25.2583C18.0863 23.4306 19.0002 21.2333 19.0002 18.6667C19.0002 17.7722 18.8932 16.9458 18.6793 16.1875C18.4654 15.4292 18.1446 14.7 17.7168 14L9.66683 0H4.30016ZM25.3002 0L30.6668 9.33333C28.1002 9.33333 25.9029 10.2472 24.0752 12.075C22.2474 13.9028 21.3335 16.1 21.3335 18.6667C21.3335 21.2333 22.2474 23.4306 24.0752 25.2583C25.9029 27.0861 28.1002 28 30.6668 28C33.2335 28 35.4307 27.0861 37.2585 25.2583C39.0863 23.4306 40.0002 21.2333 40.0002 18.6667C40.0002 17.7722 39.8932 16.9458 39.6793 16.1875C39.4654 15.4292 39.1446 14.7 38.7168 14L30.6668 0H25.3002ZM9.66683 15.1667C10.6391 15.1667 11.4654 15.5069 12.146 16.1875C12.8266 16.8681 13.1668 17.6944 13.1668 18.6667C13.1668 19.6389 12.8266 20.4653 12.146 21.1458C11.4654 21.8264 10.6391 22.1667 9.66683 22.1667C8.69461 22.1667 7.86822 21.8264 7.18766 21.1458C6.50711 20.4653 6.16683 19.6389 6.16683 18.6667C6.16683 17.6944 6.50711 16.8681 7.18766 16.1875C7.86822 15.5069 8.69461 15.1667 9.66683 15.1667ZM30.6668 15.1667C31.6391 15.1667 32.4654 15.5069 33.146 16.1875C33.8265 16.8681 34.1668 17.6944 34.1668 18.6667C34.1668 19.6389 33.8265 20.4653 33.146 21.1458C32.4654 21.8264 31.6391 22.1667 30.6668 22.1667C29.6946 22.1667 28.8682 21.8264 28.1877 21.1458C27.5071 20.4653 27.1668 19.6389 27.1668 18.6667C27.1668 17.6944 27.5071 16.8681 28.1877 16.1875C28.8682 15.5069 29.6946 15.1667 30.6668 15.1667Z" fill="white"/>
</svg>
