<svg width="48" height="48" viewBox="0 0 48 48" fill="none" xmlns="http://www.w3.org/2000/svg">
<path d="M0 48V10.6667H10.6667V0H37.3333V21.3333H48V48H26.6667V37.3333H21.3333V48H0ZM5.33333 42.6667H10.6667V37.3333H5.33333V42.6667ZM5.33333 32H10.6667V26.6667H5.33333V32ZM5.33333 21.3333H10.6667V16H5.33333V21.3333ZM16 32H21.3333V26.6667H16V32ZM16 21.3333H21.3333V16H16V21.3333ZM16 10.6667H21.3333V5.33333H16V10.6667ZM26.6667 32H32V26.6667H26.6667V32ZM26.6667 21.3333H32V16H26.6667V21.3333ZM26.6667 10.6667H32V5.33333H26.6667V10.6667ZM37.3333 42.6667H42.6667V37.3333H37.3333V42.6667ZM37.3333 32H42.6667V26.6667H37.3333V32Z" fill="#2B2B2B"/>
</svg>
