<svg width="60" height="48" viewBox="0 0 60 48" fill="none" xmlns="http://www.w3.org/2000/svg">
<path d="M29.9993 0L59.3327 22L56.1327 26.2667L51.3327 22.6667V48H8.66602V22.6667L3.86602 26.2667L0.666016 22L29.9993 0ZM17.5993 24.1333C17.5993 26.4889 18.866 29 21.3993 31.6667C23.9327 34.3333 26.7993 37.1111 29.9993 40C33.1993 37.1111 36.066 34.3333 38.5993 31.6667C41.1327 29 42.3994 26.4889 42.3994 24.1333C42.3994 22.1778 41.7327 20.5556 40.3994 19.2667C39.066 17.9778 37.466 17.3333 35.5993 17.3333C34.4438 17.3333 33.3882 17.5667 32.4327 18.0333C31.4771 18.5 30.666 19.1111 29.9993 19.8667C29.3327 19.1111 28.4993 18.5 27.4993 18.0333C26.4993 17.5667 25.466 17.3333 24.3994 17.3333C22.5327 17.3333 20.9327 17.9778 19.5993 19.2667C18.266 20.5556 17.5993 22.1778 17.5993 24.1333ZM45.9994 42.6667V18.6667L29.9993 6.66667L13.9993 18.6667V42.6667H45.9994Z" fill="#2B2B2B"/>
</svg>
