<svg width="44" height="54" viewBox="0 0 44 54" fill="none" xmlns="http://www.w3.org/2000/svg">
<path d="M21.9993 21.6667C19.066 21.6667 16.5549 20.6223 14.466 18.5334C12.3771 16.4445 11.3327 13.9334 11.3327 11C11.3327 8.06671 12.3771 5.5556 14.466 3.46671C16.5549 1.37782 19.066 0.333374 21.9993 0.333374C24.9327 0.333374 27.4438 1.37782 29.5327 3.46671C31.6216 5.5556 32.666 8.06671 32.666 11C32.666 13.9334 31.6216 16.4445 29.5327 18.5334C27.4438 20.6223 24.9327 21.6667 21.9993 21.6667ZM21.9993 16.3334C23.466 16.3334 24.7216 15.8112 25.766 14.7667C26.8105 13.7223 27.3327 12.4667 27.3327 11C27.3327 9.53337 26.8105 8.27782 25.766 7.23337C24.7216 6.18893 23.466 5.66671 21.9993 5.66671C20.5327 5.66671 19.2771 6.18893 18.2327 7.23337C17.1882 8.27782 16.666 9.53337 16.666 11C16.666 12.4667 17.1882 13.7223 18.2327 14.7667C19.2771 15.8112 20.5327 16.3334 21.9993 16.3334ZM0.666016 53.6667V35.6C0.666016 34.0889 1.04379 32.7 1.79935 31.4334C2.5549 30.1667 3.59935 29.1778 4.93268 28.4667C7.19935 27.3112 9.76602 26.3334 12.6327 25.5334C15.4993 24.7334 18.6216 24.3334 21.9993 24.3334C25.3771 24.3334 28.4993 24.7334 31.366 25.5334C34.2327 26.3334 36.7994 27.3112 39.066 28.4667C40.3994 29.1778 41.4438 30.1667 42.1993 31.4334C42.9549 32.7 43.3327 34.0889 43.3327 35.6V48.3334C43.3327 49.8 42.8105 51.0556 41.766 52.1C40.7216 53.1445 39.466 53.6667 37.9994 53.6667H15.9993C13.9549 53.6667 12.2216 52.9556 10.7993 51.5334C9.37713 50.1112 8.66602 48.3778 8.66602 46.3334C8.66602 44.2889 9.37713 42.5556 10.7993 41.1334C12.2216 39.7112 13.9549 39 15.9993 39H23.5327L27.666 30.2C26.7771 30.0223 25.866 29.8889 24.9327 29.8C23.9994 29.7112 23.0216 29.6667 21.9993 29.6667C18.7993 29.6667 15.9549 30.0556 13.466 30.8334C10.9771 31.6112 8.95491 32.4223 7.39935 33.2667C6.95491 33.4889 6.61046 33.8111 6.36602 34.2334C6.12157 34.6556 5.99935 35.1111 5.99935 35.6V53.6667H0.666016ZM15.9993 48.3334H19.1994L21.066 44.3334H15.9993C15.466 44.3334 14.9993 44.5334 14.5993 44.9334C14.1993 45.3334 13.9993 45.8 13.9993 46.3334C13.9993 46.8667 14.1993 47.3334 14.5993 47.7334C14.9993 48.1334 15.466 48.3334 15.9993 48.3334ZM25.066 48.3334H37.9994V35.6C37.9994 35.1111 37.8771 34.6556 37.6327 34.2334C37.3882 33.8111 37.066 33.4889 36.666 33.2667C36.1327 33 35.5549 32.7223 34.9327 32.4334C34.3105 32.1445 33.6438 31.8667 32.9327 31.6L25.066 48.3334Z" fill="#2B2B2B"/>
</svg>
